<?xml version="1.0" standalone="no"?>
<!DOCTYPE svg PUBLIC "-//W3C//DTD SVG 20010904//EN"
 "http://www.w3.org/TR/2001/REC-SVG-20010904/DTD/svg10.dtd">
<svg version="1.0" xmlns="http://www.w3.org/2000/svg"
 width="640.000000pt" height="1280.000000pt" viewBox="0 0 640.000000 1280.000000"
 preserveAspectRatio="xMidYMid meet">
<metadata>
Created by potrace 1.15, written by Peter Selinger 2001-2017
</metadata>
<g transform="translate(0.000000,1280.000000) scale(0.100000,-0.100000)"
fill="#ffffff" stroke="none">
<path d="M262 12784 c-44 -30 -37 61 -92 -1279 -6 -137 -15 -356 -20 -485 -48
-1155 -60 -1530 -64 -1947 l-4 -481 130 -179 c262 -360 350 -516 411 -722 l22
-76 5 -3680 5 -3680 29 -55 c38 -74 89 -125 161 -163 l60 -32 260 0 260 0 67
33 c77 37 128 90 167 172 l26 55 2 3698 c3 4103 -4 3739 68 3895 52 112 96
179 262 399 85 112 172 231 194 265 l39 61 0 452 c0 426 -6 609 -60 1895 -5
129 -23 577 -40 995 -17 418 -33 775 -36 794 -12 76 -93 106 -151 57 l-28 -24
-5 -1585 c-5 -1584 -5 -1586 -26 -1614 -60 -82 -188 -82 -248 0 -20 27 -21 43
-23 295 -1 147 -6 467 -12 712 -6 245 -16 643 -21 885 -23 1001 -31 1277 -40
1300 -31 81 -158 68 -174 -17 -3 -18 -10 -226 -16 -463 -31 -1331 -51 -2246
-53 -2445 -3 -259 -8 -278 -80 -311 -74 -33 -140 -19 -190 40 l-27 33 0 196
c0 108 -5 382 -10 607 -18 740 -29 1252 -40 1760 -6 275 -13 524 -16 554 -9
86 -65 123 -137 90 -53 -24 -49 31 -77 -1209 -6 -272 -15 -668 -20 -880 -5
-212 -13 -551 -16 -753 -7 -353 -8 -370 -28 -400 -56 -85 -189 -87 -249 -6
-19 26 -19 62 -18 1597 2 1691 4 1624 -47 1651 -30 16 -74 13 -100 -5z"/>
<path d="M4735 12739 c-202 -29 -388 -132 -575 -319 -433 -431 -744 -1189
-846 -2065 -14 -113 -18 -227 -18 -460 0 -324 10 -448 55 -690 124 -668 441
-1203 867 -1465 60 -37 69 -53 77 -142 4 -35 7 -1696 8 -3693 l2 -3630 32 -67
c38 -81 97 -142 172 -177 l56 -26 260 0 260 0 57 28 c91 44 163 128 189 220 4
16 9 1677 9 3691 1 2015 5 3678 10 3697 l8 34 2 -45 c2 -51 6 -46 14 20 6 44
9 47 82 90 429 253 756 801 878 1470 50 277 70 709 47 1006 -97 1214 -656
2286 -1301 2492 -68 22 -199 43 -253 41 -18 -1 -59 -5 -92 -10z"/>
</g>
</svg>
